<svg width="100" height="40" viewBox="0 0 100 40" fill="none" xmlns="http://www.w3.org/2000/svg">
<path d="M26.3688 20.75L30.5688 24.95L29.5 26L23.5 20L29.5 14L30.5688 15.05L26.3688 19.25H35.5V20.75H26.3688Z" fill="#080808"/>
<path d="M52.8275 22.4365C52.8275 22.2314 52.7956 22.0492 52.7318 21.8896C52.6726 21.7301 52.5655 21.5843 52.4105 21.4521C52.2556 21.32 52.0368 21.1924 51.7543 21.0693C51.4763 20.9417 51.1208 20.8118 50.6879 20.6797C50.2139 20.5339 49.7764 20.3721 49.3754 20.1943C48.9789 20.012 48.6326 19.8024 48.3363 19.5654C48.0401 19.3239 47.81 19.0482 47.6459 18.7383C47.4818 18.4238 47.3998 18.0615 47.3998 17.6514C47.3998 17.2458 47.4841 16.8766 47.6527 16.5439C47.8259 16.2113 48.0697 15.9242 48.3842 15.6826C48.7032 15.4365 49.0792 15.2474 49.5121 15.1152C49.9451 14.9785 50.4236 14.9102 50.9477 14.9102C51.6859 14.9102 52.3217 15.0469 52.8549 15.3203C53.3926 15.5938 53.8051 15.9606 54.0922 16.4209C54.3839 16.8812 54.5297 17.3893 54.5297 17.9453H52.8275C52.8275 17.6172 52.7569 17.3278 52.6156 17.0771C52.4789 16.8219 52.2693 16.6214 51.9867 16.4756C51.7087 16.3298 51.3555 16.2568 50.9271 16.2568C50.5215 16.2568 50.1843 16.3184 49.9154 16.4414C49.6465 16.5645 49.446 16.7308 49.3139 16.9404C49.1817 17.1501 49.1156 17.387 49.1156 17.6514C49.1156 17.8382 49.1589 18.0091 49.2455 18.1641C49.3321 18.3145 49.4643 18.4557 49.642 18.5879C49.8197 18.7155 50.043 18.8363 50.3119 18.9502C50.5808 19.0641 50.8975 19.1735 51.2621 19.2783C51.8135 19.4424 52.2943 19.6247 52.7045 19.8252C53.1146 20.0212 53.4564 20.2445 53.7299 20.4951C54.0033 20.7458 54.2084 21.0306 54.3451 21.3496C54.4818 21.6641 54.5502 22.0218 54.5502 22.4229C54.5502 22.8421 54.4659 23.2204 54.2973 23.5576C54.1286 23.8903 53.8871 24.1751 53.5727 24.4121C53.2628 24.6445 52.8891 24.8245 52.4516 24.9521C52.0186 25.0752 51.5355 25.1367 51.0023 25.1367C50.5238 25.1367 50.0521 25.0729 49.5873 24.9453C49.127 24.8177 48.7077 24.624 48.3295 24.3643C47.9512 24.0999 47.6505 23.7718 47.4271 23.3799C47.2038 22.9834 47.0922 22.5208 47.0922 21.9922H48.808C48.808 22.3158 48.8627 22.5915 48.9721 22.8193C49.086 23.0472 49.2432 23.234 49.4438 23.3799C49.6443 23.5212 49.8767 23.626 50.141 23.6943C50.4099 23.7627 50.697 23.7969 51.0023 23.7969C51.4034 23.7969 51.7383 23.7399 52.0072 23.626C52.2807 23.512 52.4857 23.3525 52.6225 23.1475C52.7592 22.9424 52.8275 22.7054 52.8275 22.4365ZM60.1736 23.5166V19.9893C60.1736 19.7249 60.1258 19.4971 60.0301 19.3057C59.9344 19.1143 59.7885 18.9661 59.5926 18.8613C59.4012 18.7565 59.1596 18.7041 58.868 18.7041C58.5991 18.7041 58.3667 18.7497 58.1707 18.8408C57.9747 18.932 57.8221 19.055 57.7127 19.21C57.6033 19.3649 57.5486 19.5404 57.5486 19.7363H55.908C55.908 19.4447 55.9786 19.1621 56.1199 18.8887C56.2612 18.6152 56.4663 18.3714 56.7352 18.1572C57.004 17.943 57.3253 17.7744 57.699 17.6514C58.0727 17.5283 58.492 17.4668 58.9568 17.4668C59.5128 17.4668 60.005 17.5602 60.4334 17.7471C60.8663 17.9339 61.2059 18.2165 61.452 18.5947C61.7026 18.9684 61.8279 19.4378 61.8279 20.0029V23.291C61.8279 23.6283 61.8507 23.9313 61.8963 24.2002C61.9464 24.4645 62.0171 24.6947 62.1082 24.8906V25H60.4197C60.3423 24.8223 60.2807 24.5967 60.2352 24.3232C60.1941 24.0452 60.1736 23.7764 60.1736 23.5166ZM60.4129 20.502L60.4266 21.5205H59.2439C58.9386 21.5205 58.6697 21.5501 58.4373 21.6094C58.2049 21.6641 58.0112 21.7461 57.8563 21.8555C57.7013 21.9648 57.5851 22.097 57.5076 22.252C57.4301 22.4069 57.3914 22.5824 57.3914 22.7783C57.3914 22.9743 57.437 23.1543 57.5281 23.3184C57.6193 23.4779 57.7514 23.6032 57.9246 23.6943C58.1023 23.7855 58.3165 23.8311 58.5672 23.8311C58.9044 23.8311 59.1984 23.7627 59.449 23.626C59.7042 23.4847 59.9048 23.3138 60.0506 23.1133C60.1964 22.9082 60.2739 22.7145 60.283 22.5322L60.8162 23.2637C60.7615 23.4505 60.6681 23.651 60.5359 23.8652C60.4038 24.0794 60.2306 24.2845 60.0164 24.4805C59.8068 24.6719 59.5538 24.8291 59.2576 24.9521C58.966 25.0752 58.6287 25.1367 58.2459 25.1367C57.7628 25.1367 57.3322 25.041 56.9539 24.8496C56.5757 24.6536 56.2794 24.3916 56.0652 24.0635C55.851 23.7308 55.7439 23.3548 55.7439 22.9355C55.7439 22.5436 55.8169 22.1973 55.9627 21.8965C56.1131 21.5911 56.3318 21.3359 56.6189 21.1309C56.9106 20.9258 57.2661 20.7708 57.6854 20.666C58.1046 20.5566 58.5831 20.502 59.1209 20.502H60.4129ZM65.4143 17.6035V25H63.76V17.6035H65.4143ZM63.6506 15.6621C63.6506 15.4115 63.7326 15.2041 63.8967 15.04C64.0653 14.8714 64.2977 14.7871 64.5939 14.7871C64.8856 14.7871 65.1158 14.8714 65.2844 15.04C65.453 15.2041 65.5373 15.4115 65.5373 15.6621C65.5373 15.9082 65.453 16.1133 65.2844 16.2773C65.1158 16.4414 64.8856 16.5234 64.5939 16.5234C64.2977 16.5234 64.0653 16.4414 63.8967 16.2773C63.7326 16.1133 63.6506 15.9082 63.6506 15.6621ZM68.9732 19.0117V25H67.3258V17.6035H68.898L68.9732 19.0117ZM71.2359 17.5557L71.2223 19.0869C71.122 19.0687 71.0126 19.055 70.8941 19.0459C70.7802 19.0368 70.6663 19.0322 70.5523 19.0322C70.2698 19.0322 70.0214 19.0732 69.8072 19.1553C69.593 19.2327 69.413 19.3467 69.2672 19.4971C69.1259 19.6429 69.0165 19.8206 68.9391 20.0303C68.8616 20.2399 68.816 20.4746 68.8023 20.7344L68.4264 20.7617C68.4264 20.2969 68.4719 19.8662 68.5631 19.4697C68.6542 19.0732 68.791 18.7246 68.9732 18.4238C69.1601 18.123 69.3925 17.8883 69.6705 17.7197C69.9531 17.5511 70.2789 17.4668 70.648 17.4668C70.7483 17.4668 70.8554 17.4759 70.9693 17.4941C71.0878 17.5124 71.1767 17.5329 71.2359 17.5557Z" fill="#080808"/>
</svg>
